<svg xmlns="http://www.w3.org/2000/svg" width="512" height="512" viewBox="0 0 512 512" role="img" aria-label="0xstack">
  <rect width="512" height="512" rx="96" fill="#0b0f19"/>
  <path d="M120 192c0-44.2 35.8-80 80-80h112c44.2 0 80 35.8 80 80v128c0 44.2-35.8 80-80 80H200c-44.2 0-80-35.8-80-80V192z" fill="#111827"/>
  <path d="M200 156h112c19.9 0 36 16.1 36 36v128c0 19.9-16.1 36-36 36H200c-19.9 0-36-16.1-36-36V192c0-19.9 16.1-36 36-36z" fill="#0b0f19"/>
  <path d="M210 236h24l22 36 22-36h24l-34 52 34 52h-24l-22-36-22 36h-24l34-52-34-52z" fill="#e5e7eb"/>
  <path d="M132 120h72v36h-72v-36zm176 0h72v36h-72v-36z" fill="#38bdf8"/>
</svg>

